<svg id="_12.svg" data-name="12.svg" xmlns="http://www.w3.org/2000/svg" width="100.32" height="100" viewBox="0 0 100.32 100">
  <defs>
    <style>
      .cls-1 {
        fill: #ffd800;
      }

      .cls-1, .cls-2 {
        fill-rule: evenodd;
      }
    </style>
  </defs>
  <path id="Ellipse_5_copy" data-name="Ellipse 5 copy" class="cls-1" d="M1093,380a50,50,0,1,1-50.15,50A50.073,50.073,0,0,1,1093,380Z" transform="translate(-1042.84 -380)"/>
  <path id="Ellipse_6_copy" data-name="Ellipse 6 copy" class="cls-2" d="M1085.94,432.81c3.96,0,7.06-4.5,7.06-10.238,0-5.027-2.64-8.028-7.06-8.028s-7.06,3-7.06,8.028C1078.88,428.313,1081.99,432.81,1085.94,432.81Zm0-15.456c2.85,0,4.24,1.707,4.24,5.218,0,4.026-1.94,7.428-4.24,7.428s-4.23-3.4-4.23-7.428C1081.71,419.061,1083.09,417.354,1085.94,417.354Zm16.24,5.621c3.56,0,6.35-3.792,6.35-8.632,0-4.273-2.38-6.824-6.35-6.824s-6.36,2.551-6.36,6.824C1095.82,419.183,1098.61,422.975,1102.18,422.975Zm0-12.646c2.41,0,3.53,1.276,3.53,4.014,0,3.156-1.62,5.821-3.53,5.821s-3.53-2.665-3.53-5.821C1098.65,411.605,1099.77,410.329,1102.18,410.329Zm10.7,16.131a2.928,2.928,0,0,0-2.12-.93l-0.56.007c-1.16.013-1.4,0.024-2.02-.679a1.416,1.416,0,0,0-1.99-.13,1.392,1.392,0,0,0-.13,1.983,4.624,4.624,0,0,0,4.19,1.636l0.5-.007c0.9,0.309,1.9,4.661,2.01,10.09h-4.23v-5.62a1.41,1.41,0,0,0-2.82,0v5.62h-6.15a6.3,6.3,0,0,0-1.15-1.737,3.409,3.409,0,0,0-2.45-1.073l-0.42,0c-1.57.015-2.08,0.012-2.88-.916a1.415,1.415,0,0,0-1.99-.152,1.4,1.4,0,0,0-.15,1.979c1.65,1.916,3.27,1.922,5.04,1.9l0.4,0a0.579,0.579,0,0,1,.44.24c1.52,1.523,2.14,7.062,2.24,11h-4.23V444.05a1.41,1.41,0,0,0-2.82,0v5.621H1080.3V444.05a1.415,1.415,0,0,0-2.83,0v5.621h-4.22c0.1-4.113.79-9.546,2.23-11a0.593,0.593,0,0,1,.45-0.24l0.4,0c1.75,0.008,3.39.017,5.04-1.9a1.4,1.4,0,0,0-.15-1.979,1.414,1.414,0,0,0-1.99.152c-0.8.928-1.33,0.933-2.88,0.916l-0.42,0a3.393,3.393,0,0,0-2.45,1.073c-3.02,3.036-3.08,12.524-3.06,14.4a1.405,1.405,0,0,0,1.41,1.392h28.23a1.412,1.412,0,0,0,1.41-1.392v-0.718a43.254,43.254,0,0,0-.95-9.131h13.65a1.414,1.414,0,0,0,1.42-1.392C1115.6,438.082,1115.55,429.137,1112.88,426.46Z" transform="translate(-1042.84 -380)"/>
</svg>
