<svg id="_13.svg" data-name="13.svg" xmlns="http://www.w3.org/2000/svg" width="100.31" height="100" viewBox="0 0 100.31 100">
  <defs>
    <style>
      .cls-1 {
        fill: #ffd800;
      }

      .cls-2 {
        fill-rule: evenodd;
      }
    </style>
  </defs>
  <circle class="cls-1" cx="50.155" cy="50" r="50.155"/>
  <path class="cls-2" d="M992.467,399.221a1.447,1.447,0,0,0-1.707,1.133l-1.45,7.229a1.445,1.445,0,0,0,1.137,1.7,1.468,1.468,0,0,0,.286.029,1.45,1.45,0,0,0,1.421-1.162l1.45-7.229A1.445,1.445,0,0,0,992.467,399.221Zm5.8,0a1.445,1.445,0,0,0-1.707,1.133l-1.45,7.229a1.445,1.445,0,0,0,1.137,1.7,1.468,1.468,0,0,0,.286.029,1.449,1.449,0,0,0,1.421-1.162l1.451-7.229A1.446,1.446,0,0,0,998.269,399.221Zm5.8,0a1.454,1.454,0,0,0-1.71,1.133l-1.45,7.229a1.456,1.456,0,0,0,1.14,1.7,1.5,1.5,0,0,0,.29.029,1.456,1.456,0,0,0,1.42-1.162l1.45-7.229A1.441,1.441,0,0,0,1004.07,399.221Zm22.78,8.039a0.059,0.059,0,0,0-.01-0.04l-4.35-8.674a1.459,1.459,0,0,0-1.3-.8h-7.8l0.52-2.607a1.409,1.409,0,0,0-.3-1.2,1.448,1.448,0,0,0-1.12-.53H982.029a1.449,1.449,0,0,0-1.423,1.73l4.352,21.684a1.45,1.45,0,0,0,1.423,1.162h1.45a5.8,5.8,0,0,0,11.6,0h11.605a5.8,5.8,0,0,0,11.6,0h2.9a1.441,1.441,0,0,0,1.45-1.446v-8.673A1.374,1.374,0,0,0,1026.85,407.26Zm-3.65-.839h-4.91v-5.783h2.01Zm-29.567,14.456a2.9,2.9,0,0,1-2.9-2.891,2.846,2.846,0,0,1,.171-0.939c0-.008.009-0.014,0.011-0.023a2.91,2.91,0,0,1,1.781-1.761l0.133-.041a2.608,2.608,0,0,1,1.611,0c0.043,0.012.087,0.025,0.13,0.039a2.909,2.909,0,0,1,1.782,1.764c0,0.008.01,0.016,0.013,0.024a2.823,2.823,0,0,1,.17.936A2.9,2.9,0,0,1,993.633,420.877Zm5.006-5.782c-0.017-.03-0.039-0.055-0.057-0.084a5.53,5.53,0,0,0-.312-0.464c-0.084-.115-0.178-0.22-0.271-0.328a5.587,5.587,0,0,0-.541-0.547c-0.134-.119-0.269-0.234-0.413-0.34-0.12-.087-0.242-0.169-0.369-0.247a5.668,5.668,0,0,0-.579-0.314c-0.112-.053-0.221-0.107-0.337-0.152a5.713,5.713,0,0,0-.816-0.253c-0.1-.023-0.192-0.043-0.291-0.059a5.112,5.112,0,0,0-2.042,0c-0.1.016-.192,0.036-0.288,0.058a5.725,5.725,0,0,0-.826.256c-0.109.043-.211,0.094-0.317,0.144a6.109,6.109,0,0,0-.6.322c-0.123.077-.242,0.157-0.359,0.241-0.151.111-.292,0.232-0.431,0.356a5.822,5.822,0,0,0-.518.524c-0.1.112-.194,0.222-0.283,0.342a5.367,5.367,0,0,0-.309.461c-0.018.028-.04,0.054-0.057,0.084h-1.058L983.8,396.3h26.922l-3.77,18.794h-8.311Zm18.2,5.782a2.859,2.859,0,0,1-2.73-3.83c0-.008.01-0.014,0.01-0.023a2.906,2.906,0,0,1,1.78-1.761c0.05-.014.09-0.028,0.14-0.041a2.811,2.811,0,0,1,.8-0.127,2.846,2.846,0,0,1,.81.128l0.13,0.039a2.905,2.905,0,0,1,1.78,1.764c0,0.008.01,0.016,0.01,0.024a2.656,2.656,0,0,1,.17.936A2.9,2.9,0,0,1,1016.84,420.877Zm5.01-5.782c-0.02-.03-0.04-0.055-0.06-0.084-0.1-.16-0.2-0.314-0.31-0.464-0.09-.115-0.18-0.22-0.27-0.328a6.2,6.2,0,0,0-.54-0.547c-0.14-.119-0.27-0.234-0.42-0.34-0.12-.087-0.24-0.169-0.37-0.247a5.863,5.863,0,0,0-.57-0.314c-0.12-.053-0.23-0.107-0.34-0.152a5.97,5.97,0,0,0-.82-0.253c-0.09-.023-0.19-0.043-0.29-0.059a5.1,5.1,0,0,0-2.04,0c-0.1.016-.19,0.036-0.29,0.058a5.463,5.463,0,0,0-.82.256c-0.11.043-.22,0.094-0.32,0.144a5.364,5.364,0,0,0-.6.322q-0.18.115-.36,0.241c-0.15.111-.29,0.232-0.43,0.356-0.18.164-.35,0.338-0.52,0.524-0.09.112-.19,0.222-0.28,0.342-0.11.148-.21,0.3-0.31,0.461a0.333,0.333,0,0,0-.05.084h-1.93l2.9-14.457h2.58v7.229a1.449,1.449,0,0,0,1.45,1.446h7.25V415.1h-2.24Zm-38.372-23.13a1.453,1.453,0,0,0,1.116-.52l6.235-7.459,3.229,3.218a1.434,1.434,0,0,0,1.106.42,1.451,1.451,0,0,0,1.053-.538l4.793-5.968,10.45,10.423a1.451,1.451,0,0,0,2.06-2.044l-11.61-11.565a1.405,1.405,0,0,0-1.11-.421,1.447,1.447,0,0,0-1.048.539l-4.789,5.968-3.206-3.195a1.438,1.438,0,0,0-1.09-.422,1.454,1.454,0,0,0-1.05.518l-7.252,8.674A1.446,1.446,0,0,0,983.478,391.965Zm7.254,0h2.9v-2.891h-2.9v2.891Zm8.7,0v-2.891h-2.9v2.891h2.9Zm5.805-2.891h-2.9v2.891h2.9v-2.891Zm-2.9-4.337h-2.905v2.891h2.905v-2.891Z" transform="translate(-953 -350)"/>
</svg>
